<svg width="144" height="70" viewBox="0 0 144 70" fill="none" xmlns="http://www.w3.org/2000/svg">
<path d="M11.1298 29.8597C11.1298 29.1895 11.0181 28.5752 10.7947 28.0167C10.5713 27.4582 10.2202 27.0194 9.74153 26.7003C9.27879 26.3652 8.68839 26.1977 7.97034 26.1977C7.81078 26.1977 7.65121 26.1977 7.49164 26.1977C7.33208 26.1817 7.17251 26.1737 7.01294 26.1737C6.61403 26.1737 6.35872 26.2136 6.24702 26.2934C6.13533 26.3572 6.07948 26.6125 6.07948 27.0593C6.07948 28.1444 6.07948 29.2374 6.07948 30.3384C6.07948 31.4394 6.08746 32.5324 6.10342 33.6175C6.34276 33.8249 6.62201 33.9606 6.94114 34.0244C7.26027 34.0723 7.57143 34.0962 7.8746 34.0962C8.70435 34.0962 9.35059 33.8967 9.81333 33.4978C10.292 33.0829 10.6271 32.5484 10.8186 31.8942C11.026 31.24 11.1298 30.5618 11.1298 29.8597ZM14.5764 29.7879C14.5764 30.841 14.3929 31.7027 14.0259 32.3729C13.6589 33.0271 13.1562 33.5377 12.518 33.9047C11.8957 34.2717 11.1776 34.527 10.3638 34.6706C9.56601 34.7983 8.7203 34.8621 7.82673 34.8621C7.53951 34.8621 7.25229 34.8462 6.96507 34.8142C6.67785 34.7823 6.39063 34.7504 6.10342 34.7185C6.10342 35.8833 6.10342 37.0482 6.10342 38.213C6.10342 39.3619 6.10342 40.5187 6.10342 41.6836C6.10342 41.8112 6.12735 41.9469 6.17522 42.0905C6.23905 42.2341 6.35074 42.3059 6.51031 42.3059C6.71775 42.3059 6.9172 42.2979 7.10868 42.282C7.31612 42.266 7.52356 42.258 7.73099 42.258C7.84269 42.258 7.93045 42.3218 7.99428 42.4495C8.07406 42.5771 8.11395 42.6809 8.11395 42.7607C8.11395 42.8723 8.07406 42.9601 7.99428 43.0239C7.91449 43.0878 7.82673 43.1197 7.73099 43.1197C7.52356 43.1197 7.31612 43.1117 7.10868 43.0957C6.90125 43.0798 6.68583 43.0638 6.46244 43.0479C6.14331 43.016 5.8162 43 5.48111 43C5.14602 43 4.81891 43 4.49977 43C3.73385 43 2.97591 43.0239 2.22595 43.0718C2.05043 43.0878 1.87491 43.0957 1.69938 43.0957C1.53982 43.1117 1.37227 43.1197 1.19675 43.1197C1.03718 43.1197 0.933463 43.0718 0.885594 42.9761C0.837724 42.8644 0.813789 42.7527 0.813789 42.641C0.813789 42.5133 0.861659 42.4256 0.957398 42.3777C1.05314 42.3139 1.15686 42.282 1.26855 42.282C1.41216 42.282 1.55577 42.2899 1.69938 42.3059C1.84299 42.3218 1.99458 42.3298 2.15415 42.3298C2.18606 42.3298 2.22595 42.3298 2.27382 42.3298C2.32169 42.3298 2.36158 42.3298 2.3935 42.3298C2.61689 42.3139 2.74454 42.1862 2.77646 41.9469C2.82433 41.7075 2.84826 41.5081 2.84826 41.3485V27.2508C2.84826 27.1231 2.8323 26.9396 2.80039 26.7003C2.76848 26.445 2.65678 26.3094 2.4653 26.2934C2.41743 26.2934 2.36956 26.2934 2.32169 26.2934C2.28978 26.2934 2.25786 26.2934 2.22595 26.2934C2.06638 26.2934 1.90682 26.3014 1.74725 26.3173C1.58769 26.3333 1.42812 26.3413 1.26855 26.3413C1.15686 26.3413 1.04516 26.2934 0.933463 26.1977C0.837724 26.1019 0.789854 25.9982 0.789854 25.8865C0.789854 25.7748 0.837724 25.6711 0.933463 25.5753C1.04516 25.4796 1.15686 25.4317 1.26855 25.4317C1.44408 25.4317 1.6196 25.4397 1.79512 25.4557C1.9866 25.4716 2.1701 25.4876 2.34563 25.5035C2.71263 25.5195 3.07165 25.5355 3.4227 25.5514C3.7897 25.5514 4.14873 25.5514 4.49977 25.5514C5.23378 25.5514 5.95981 25.5355 6.67785 25.5035C7.41186 25.4557 8.14586 25.4317 8.87987 25.4317C9.58196 25.4317 10.2681 25.5115 10.9383 25.6711C11.6244 25.8147 12.2387 26.054 12.7813 26.3891C13.3238 26.7242 13.7546 27.171 14.0738 27.7295C14.4088 28.288 14.5764 28.9741 14.5764 29.7879ZM26.0179 35.8913C25.5711 34.535 25.1083 33.1867 24.6296 31.8463C24.1669 30.506 23.7201 29.1576 23.2893 27.8013C22.8265 29.1576 22.3638 30.506 21.901 31.8463C21.4543 33.1867 20.9995 34.535 20.5368 35.8913H26.0179ZM33.1984 42.7607C33.1984 43 33.0468 43.1197 32.7436 43.1197C32.6478 43.1197 32.5521 43.1197 32.4564 43.1197C32.3606 43.1197 32.2569 43.1117 32.1452 43.0957C31.7463 43.0638 31.3314 43.0479 30.9006 43.0479C30.4857 43.0479 30.0708 43.0479 29.656 43.0479C29.1294 43.0479 28.6028 43.0479 28.0763 43.0479C27.5497 43.0479 27.0152 43.0638 26.4726 43.0957C26.4088 43.1117 26.345 43.1197 26.2811 43.1197C26.2173 43.1197 26.1535 43.1197 26.0897 43.1197C25.8663 43.1197 25.7546 43.008 25.7546 42.7846C25.7546 42.5931 25.8184 42.4814 25.9461 42.4495C26.0897 42.4016 26.2492 42.3857 26.4248 42.4016C26.6003 42.4176 26.7439 42.4256 26.8556 42.4256C27.1428 42.4256 27.3502 42.3697 27.4779 42.258C27.6215 42.1304 27.6933 41.9149 27.6933 41.6118C27.6933 41.4362 27.6375 41.1331 27.5258 40.7022C27.4141 40.2555 27.2784 39.7688 27.1189 39.2422C26.9593 38.7156 26.7997 38.229 26.6402 37.7822C26.4966 37.3194 26.3928 36.9923 26.329 36.8008H20.2256C20.1937 36.8966 20.1219 37.112 20.0102 37.4471C19.8985 37.7822 19.7629 38.1731 19.6033 38.6199C19.4597 39.0667 19.3161 39.5055 19.1725 39.9363C19.0289 40.3672 18.9092 40.7421 18.8134 41.0613C18.7177 41.3644 18.6698 41.5479 18.6698 41.6118C18.6698 41.9149 18.7496 42.1224 18.9092 42.2341C19.0687 42.3458 19.2682 42.4096 19.5076 42.4256C19.7469 42.4256 19.9783 42.4256 20.2017 42.4256C20.2815 42.4256 20.3453 42.4814 20.3931 42.5931C20.441 42.6888 20.465 42.7766 20.465 42.8564C20.465 42.9521 20.4251 43.0239 20.3453 43.0718C20.2815 43.1197 20.2096 43.1436 20.1299 43.1436C19.6033 43.1436 19.0767 43.1277 18.5502 43.0957C18.0395 43.0798 17.5289 43.0718 17.0183 43.0718C16.763 43.0718 16.5077 43.0798 16.2524 43.0957C15.9971 43.1117 15.7338 43.1197 15.4625 43.1197C15.3828 43.1197 15.303 43.0878 15.2232 43.0239C15.1434 42.9601 15.1035 42.8883 15.1035 42.8085C15.1035 42.633 15.1673 42.5213 15.295 42.4734C15.4227 42.4256 15.5663 42.4096 15.7258 42.4256C15.9014 42.4256 16.045 42.4256 16.1567 42.4256C16.3641 42.4256 16.5316 42.3458 16.6593 42.1862C16.8029 42.0107 16.9066 41.8431 16.9704 41.6836C17.9119 39.322 18.8055 36.9524 19.6512 34.5749C20.4969 32.1814 21.3186 29.7799 22.1165 27.3705C22.1803 27.1949 22.2601 26.9476 22.3558 26.6285C22.4516 26.3094 22.4994 26.07 22.4994 25.9104C22.4994 25.8147 22.4755 25.7349 22.4276 25.6711C22.3957 25.5913 22.3797 25.5195 22.3797 25.4557C22.3797 25.3918 22.4595 25.344 22.6191 25.3121C22.7787 25.2802 22.9462 25.2562 23.1217 25.2403C23.2973 25.2243 23.409 25.2163 23.4568 25.2163C23.7919 25.1685 24.119 25.1206 24.4382 25.0727C24.7732 25.0248 25.1083 24.985 25.4434 24.953L31.3075 41.4921C31.4351 41.8751 31.6027 42.1224 31.8101 42.2341C32.0335 42.3298 32.3287 42.3777 32.6957 42.3777C32.8393 42.3777 32.959 42.4016 33.0547 42.4495C33.1505 42.4814 33.1984 42.5851 33.1984 42.7607ZM49.8431 29.8118C49.8431 29.9714 49.8032 30.123 49.7234 30.2666C49.6436 30.3943 49.5159 30.4581 49.3404 30.4581C49.0851 30.4581 48.9096 30.4022 48.8139 30.2905C48.7341 30.1788 48.6623 30.0193 48.5984 29.8118C48.5506 29.5884 48.4708 29.3172 48.3591 28.998C48.2633 28.663 48.1517 28.3358 48.024 28.0167C47.9123 27.6816 47.7926 27.4263 47.665 27.2508C47.6011 27.1551 47.5293 27.0673 47.4496 26.9875C47.3698 26.8918 47.29 26.804 47.2102 26.7242C47.0985 26.5806 46.8991 26.4849 46.6118 26.437C46.3246 26.3732 46.0294 26.3413 45.7262 26.3413C45.4231 26.3253 45.1837 26.3173 45.0082 26.3173C44.8008 26.3173 44.5774 26.3173 44.338 26.3173C44.0987 26.3173 43.8912 26.3732 43.7157 26.4849C43.5402 26.5806 43.4444 26.7721 43.4285 27.0593C43.4125 27.6018 43.4046 28.1603 43.4046 28.7348C43.4046 29.2932 43.4046 29.8517 43.4046 30.4102C43.4046 32.2293 43.4046 34.0483 43.4046 35.8674C43.4205 37.6864 43.4285 39.5055 43.4285 41.3246C43.4285 41.516 43.4524 41.7394 43.5003 41.9947C43.5641 42.25 43.7237 42.3777 43.979 42.3777C44.2183 42.3777 44.4497 42.3697 44.6731 42.3538C44.9125 42.3378 45.1518 42.3298 45.3912 42.3298C45.5188 42.3298 45.6145 42.3857 45.6784 42.4974C45.7422 42.5931 45.7741 42.6888 45.7741 42.7846C45.7741 43.0718 45.6385 43.2154 45.3672 43.2154C45.1917 43.2154 45.0082 43.2074 44.8167 43.1915C44.6412 43.1755 44.4657 43.1596 44.2901 43.1436C43.987 43.1117 43.6838 43.0957 43.3806 43.0957C43.0774 43.0957 42.7663 43.0957 42.4472 43.0957C41.9206 43.0957 41.394 43.0957 40.8674 43.0957C40.3409 43.0957 39.8143 43.1117 39.2877 43.1436C39.0963 43.1596 38.8968 43.1755 38.6894 43.1915C38.4979 43.2074 38.3064 43.2154 38.1149 43.2154C37.9713 43.2154 37.8596 43.1675 37.7798 43.0718C37.7001 42.9761 37.6602 42.8644 37.6602 42.7367C37.6602 42.5612 37.732 42.4575 37.8756 42.4256C38.0192 42.3777 38.1548 42.3538 38.2825 42.3538C38.458 42.3538 38.6176 42.3617 38.7612 42.3777C38.9207 42.3777 39.0803 42.3777 39.2399 42.3777C39.6547 42.3777 39.8861 42.282 39.934 42.0905C39.9978 41.899 40.0297 41.6277 40.0297 41.2767V27.921C40.0297 27.2987 39.9978 26.8838 39.934 26.6764C39.8702 26.453 39.7026 26.3413 39.4313 26.3413C39.1601 26.3253 38.7133 26.3173 38.091 26.3173C37.8836 26.3173 37.5963 26.3253 37.2293 26.3413C36.8783 26.3572 36.615 26.4131 36.4395 26.5088C36.232 26.6205 36.0645 26.7721 35.9368 26.9636C35.8092 27.1391 35.7055 27.3386 35.6257 27.562C35.498 27.929 35.3704 28.3039 35.2427 28.6869C35.131 29.0699 35.0114 29.4448 34.8837 29.8118C34.8199 30.0352 34.7401 30.2028 34.6444 30.3145C34.5486 30.4102 34.3731 30.4581 34.1178 30.4581C33.8146 30.4581 33.663 30.2985 33.663 29.9794C33.663 29.5645 33.7029 29.0938 33.7827 28.5672C33.8784 28.0247 33.9343 27.5221 33.9502 27.0593C33.9662 26.804 33.9662 26.5487 33.9502 26.2934C33.9502 26.0221 33.9742 25.7668 34.022 25.5275C34.038 25.4158 34.0939 25.3599 34.1896 25.3599C34.3651 25.3599 34.5406 25.3839 34.7162 25.4317C34.9076 25.4796 35.0911 25.5195 35.2667 25.5514C35.4581 25.5674 35.6496 25.5833 35.8411 25.5993C36.0485 25.5993 36.256 25.6073 36.4634 25.6232C37.3091 25.6392 38.1867 25.6551 39.0963 25.6711C40.0217 25.6711 40.8994 25.6711 41.7291 25.6711C42.6705 25.6711 43.6599 25.6631 44.697 25.6472C45.7342 25.6312 46.7235 25.6232 47.665 25.6232C47.7607 25.6232 47.8565 25.6232 47.9522 25.6232C48.0639 25.6232 48.1676 25.6152 48.2633 25.5993C48.4389 25.5674 48.6064 25.5195 48.766 25.4557C48.9415 25.3918 49.117 25.3599 49.2926 25.3599C49.3723 25.3599 49.4282 25.3998 49.4601 25.4796C49.508 25.703 49.5399 25.9663 49.5558 26.2695C49.5718 26.5567 49.5877 26.812 49.6037 27.0354C49.6516 27.4822 49.6994 27.9449 49.7473 28.4236C49.8111 28.8864 49.8431 29.3491 49.8431 29.8118ZM61.0788 35.8913C60.632 34.535 60.1693 33.1867 59.6906 31.8463C59.2279 30.506 58.7811 29.1576 58.3502 27.8013C57.8875 29.1576 57.4248 30.506 56.962 31.8463C56.5152 33.1867 56.0605 34.535 55.5977 35.8913H61.0788ZM68.2593 42.7607C68.2593 43 68.1077 43.1197 67.8046 43.1197C67.7088 43.1197 67.6131 43.1197 67.5173 43.1197C67.4216 43.1197 67.3179 43.1117 67.2062 43.0957C66.8073 43.0638 66.3924 43.0479 65.9616 43.0479C65.5467 43.0479 65.1318 43.0479 64.7169 43.0479C64.1904 43.0479 63.6638 43.0479 63.1372 43.0479C62.6107 43.0479 62.0761 43.0638 61.5336 43.0957C61.4698 43.1117 61.4059 43.1197 61.3421 43.1197C61.2783 43.1197 61.2145 43.1197 61.1506 43.1197C60.9272 43.1197 60.8156 43.008 60.8156 42.7846C60.8156 42.5931 60.8794 42.4814 61.007 42.4495C61.1506 42.4016 61.3102 42.3857 61.4857 42.4016C61.6613 42.4176 61.8049 42.4256 61.9166 42.4256C62.2038 42.4256 62.4112 42.3697 62.5389 42.258C62.6825 42.1304 62.7543 41.9149 62.7543 41.6118C62.7543 41.4362 62.6984 41.1331 62.5867 40.7022C62.475 40.2555 62.3394 39.7688 62.1798 39.2422C62.0203 38.7156 61.8607 38.229 61.7011 37.7822C61.5575 37.3194 61.4538 36.9923 61.39 36.8008H55.2866C55.2547 36.8966 55.1829 37.112 55.0712 37.4471C54.9595 37.7822 54.8238 38.1731 54.6643 38.6199C54.5207 39.0667 54.377 39.5055 54.2334 39.9363C54.0898 40.3672 53.9702 40.7421 53.8744 41.0613C53.7787 41.3644 53.7308 41.5479 53.7308 41.6118C53.7308 41.9149 53.8106 42.1224 53.9702 42.2341C54.1297 42.3458 54.3292 42.4096 54.5685 42.4256C54.8079 42.4256 55.0392 42.4256 55.2626 42.4256C55.3424 42.4256 55.4062 42.4814 55.4541 42.5931C55.502 42.6888 55.5259 42.7766 55.5259 42.8564C55.5259 42.9521 55.486 43.0239 55.4062 43.0718C55.3424 43.1197 55.2706 43.1436 55.1908 43.1436C54.6643 43.1436 54.1377 43.1277 53.6111 43.0957C53.1005 43.0798 52.5899 43.0718 52.0793 43.0718C51.824 43.0718 51.5687 43.0798 51.3134 43.0957C51.0581 43.1117 50.7948 43.1197 50.5235 43.1197C50.4437 43.1197 50.364 43.0878 50.2842 43.0239C50.2044 42.9601 50.1645 42.8883 50.1645 42.8085C50.1645 42.633 50.2283 42.5213 50.356 42.4734C50.4836 42.4256 50.6272 42.4096 50.7868 42.4256C50.9623 42.4256 51.1059 42.4256 51.2176 42.4256C51.4251 42.4256 51.5926 42.3458 51.7203 42.1862C51.8639 42.0107 51.9676 41.8431 52.0314 41.6836C52.9729 39.322 53.8664 36.9524 54.7121 34.5749C55.5578 32.1814 56.3796 29.7799 57.1774 27.3705C57.2413 27.1949 57.321 26.9476 57.4168 26.6285C57.5125 26.3094 57.5604 26.07 57.5604 25.9104C57.5604 25.8147 57.5365 25.7349 57.4886 25.6711C57.4567 25.5913 57.4407 25.5195 57.4407 25.4557C57.4407 25.3918 57.5205 25.344 57.6801 25.3121C57.8396 25.2802 58.0072 25.2562 58.1827 25.2403C58.3582 25.2243 58.4699 25.2163 58.5178 25.2163C58.8529 25.1685 59.18 25.1206 59.4991 25.0727C59.8342 25.0248 60.1693 24.985 60.5044 24.953L66.3685 41.4921C66.4961 41.8751 66.6637 42.1224 66.8711 42.2341C67.0945 42.3298 67.3897 42.3777 67.7567 42.3777C67.9003 42.3777 68.02 42.4016 68.1157 42.4495C68.2115 42.4814 68.2593 42.5851 68.2593 42.7607ZM85.4785 38.9789C85.4785 39.0587 85.4386 39.1704 85.3588 39.314C85.279 39.4576 85.2232 39.5693 85.1912 39.6491C84.9838 40.0161 84.6647 40.3991 84.2339 40.798C83.803 41.1969 83.4041 41.524 83.0371 41.7793C82.2871 42.3059 81.4973 42.649 80.6675 42.8085C79.8378 42.9681 78.9761 43.0479 78.0826 43.0479C76.3433 43.0479 74.8593 42.6888 73.6307 41.9708C72.402 41.2368 71.4606 40.2235 70.8063 38.9311C70.1681 37.6226 69.8489 36.1147 69.8489 34.4073C69.8489 32.7159 70.1601 31.1921 70.7824 29.8358C71.4047 28.4795 72.3222 27.4024 73.5349 26.6046C74.7636 25.7908 76.2635 25.3839 78.0347 25.3839C78.8325 25.3839 79.5107 25.4796 80.0692 25.6711C80.6276 25.8626 81.2579 26.086 81.96 26.3413C82.2951 26.453 82.6302 26.5407 82.9653 26.6046C83.3004 26.6524 83.6435 26.6923 83.9945 26.7242C84.0105 27.0753 84.0344 27.4343 84.0663 27.8013C84.0982 28.1523 84.1381 28.5114 84.186 28.8784C84.2179 29.1815 84.2737 29.4927 84.3535 29.8118C84.4333 30.131 84.4732 30.4501 84.4732 30.7692C84.4732 31.0724 84.3615 31.2958 84.1381 31.4394C83.9307 31.583 83.6913 31.6548 83.4201 31.6548C82.9733 31.6548 82.6621 31.4713 82.4866 31.1043C82.4387 30.9767 82.4068 30.841 82.3909 30.6974C82.3749 30.5379 82.351 30.4022 82.3191 30.2905C82.2074 29.7799 82.0079 29.2294 81.7207 28.639C81.4494 28.0327 81.1223 27.554 80.7393 27.2029C80.4362 26.9317 80.0213 26.6923 79.4947 26.4849C78.9682 26.2615 78.4974 26.1498 78.0826 26.1498C77.6836 26.1498 77.3087 26.2375 76.9576 26.4131C76.6225 26.5886 76.2954 26.804 75.9763 27.0593C75.2902 27.6338 74.7476 28.3199 74.3487 29.1177C73.9498 29.9156 73.6706 30.7692 73.511 31.6788C73.3514 32.5723 73.2716 33.45 73.2716 34.3116C73.2716 34.886 73.3036 35.4605 73.3674 36.0349C73.4472 36.5934 73.5668 37.1519 73.7264 37.7104C73.9498 38.4603 74.2689 39.1704 74.6838 39.8406C75.1146 40.4948 75.6412 41.0294 76.2635 41.4442C76.9018 41.8431 77.6358 42.0426 78.4655 42.0426C79.6463 42.0426 80.7154 41.7474 81.6728 41.157C82.6462 40.5666 83.452 39.7927 84.0902 38.8353C84.186 38.6758 84.2817 38.5401 84.3775 38.4284C84.4892 38.3008 84.6487 38.2369 84.8562 38.2369C85.0636 38.2369 85.2152 38.3167 85.3109 38.4763C85.4226 38.6359 85.4785 38.8034 85.4785 38.9789ZM105.144 25.8865C105.144 25.9982 105.112 26.1019 105.048 26.1977C104.984 26.2934 104.888 26.3413 104.761 26.3413C104.553 26.3413 104.346 26.3333 104.138 26.3173C103.947 26.3014 103.739 26.2934 103.516 26.2934C103.357 26.2934 103.253 26.3652 103.205 26.5088C103.157 26.6524 103.133 26.7881 103.133 26.9157C103.133 27.9369 103.125 28.9582 103.109 29.9794C103.109 30.9846 103.109 32.0059 103.109 33.0431C103.109 34.4951 103.109 35.9472 103.109 37.3992C103.125 38.8353 103.133 40.2794 103.133 41.7314C103.133 41.8591 103.157 41.9947 103.205 42.1383C103.253 42.282 103.357 42.3538 103.516 42.3538C103.739 42.3538 103.947 42.3458 104.138 42.3298C104.346 42.3139 104.553 42.3059 104.761 42.3059C104.888 42.3059 104.976 42.3617 105.024 42.4734C105.072 42.5851 105.096 42.6968 105.096 42.8085C105.096 43.0479 104.968 43.1675 104.713 43.1675C104.585 43.1675 104.458 43.1596 104.33 43.1436C104.202 43.1277 104.075 43.1197 103.947 43.1197C103.708 43.0878 103.468 43.0718 103.229 43.0718C102.99 43.0718 102.75 43.0718 102.511 43.0718C101.952 43.0718 101.394 43.0718 100.835 43.0718C100.293 43.0718 99.7423 43.0878 99.1839 43.1197C99.0243 43.1197 98.8567 43.1277 98.6812 43.1436C98.5217 43.1596 98.3541 43.1675 98.1786 43.1675C98.019 43.1675 97.9073 43.1197 97.8435 43.0239C97.7956 42.9282 97.7717 42.8165 97.7717 42.6888C97.7717 42.5612 97.8196 42.4655 97.9153 42.4016C98.011 42.3378 98.1148 42.3059 98.2265 42.3059C98.402 42.3059 98.5615 42.3139 98.7052 42.3298C98.8647 42.3458 99.0243 42.3538 99.1839 42.3538C99.4232 42.3538 99.5828 42.3139 99.6626 42.2341C99.7583 42.1383 99.8062 41.9708 99.8062 41.7314V34.2877H91.9316V41.7793C91.9316 42.0187 91.9794 42.1862 92.0752 42.282C92.1709 42.3617 92.3305 42.4016 92.5539 42.4016C92.7134 42.4016 92.873 42.3936 93.0326 42.3777C93.1921 42.3617 93.3517 42.3538 93.5113 42.3538C93.6389 42.3538 93.7506 42.3857 93.8464 42.4495C93.9421 42.4974 93.99 42.5931 93.99 42.7367C93.99 43.0399 93.8464 43.1915 93.5591 43.1915C92.9687 43.1915 92.3783 43.1675 91.7879 43.1197C91.2135 43.0878 90.6391 43.0718 90.0646 43.0718C89.7774 43.0718 89.4822 43.0718 89.179 43.0718C88.8918 43.0718 88.6046 43.0798 88.3174 43.0957C88.1099 43.1117 87.9025 43.1277 87.6951 43.1436C87.5036 43.1755 87.3041 43.1915 87.0967 43.1915C86.985 43.1915 86.8972 43.1356 86.8334 43.0239C86.7855 42.9282 86.7616 42.8404 86.7616 42.7607C86.7616 42.6809 86.7935 42.5931 86.8573 42.4974C86.9212 42.4016 87.001 42.3538 87.0967 42.3538C87.3041 42.3538 87.5036 42.3617 87.6951 42.3777C87.9025 42.3936 88.1099 42.4016 88.3174 42.4016C88.4929 42.4016 88.6046 42.3298 88.6525 42.1862C88.7003 42.0426 88.7243 41.907 88.7243 41.7793C88.7243 40.1996 88.7243 38.6199 88.7243 37.0402C88.7243 35.4605 88.7243 33.8808 88.7243 32.3011C88.7243 31.4075 88.7243 30.5139 88.7243 29.6204C88.7243 28.7108 88.7243 27.8173 88.7243 26.9396C88.7243 26.812 88.7003 26.6764 88.6525 26.5327C88.6046 26.3891 88.4929 26.3173 88.3174 26.3173C88.1099 26.3173 87.9025 26.3253 87.6951 26.3413C87.5036 26.3572 87.3041 26.3652 87.0967 26.3652C86.8414 26.3652 86.7137 26.2216 86.7137 25.9344C86.7137 25.8227 86.7457 25.719 86.8095 25.6232C86.8733 25.5275 86.969 25.4796 87.0967 25.4796C87.5116 25.4796 87.9185 25.4956 88.3174 25.5275C88.7323 25.5594 89.1471 25.5753 89.562 25.5753C90.2162 25.5753 90.8704 25.5594 91.5247 25.5275C92.1948 25.4956 92.857 25.4796 93.5113 25.4796C93.8144 25.4796 93.966 25.6312 93.966 25.9344C93.966 26.1418 93.8783 26.2615 93.7027 26.2934C93.5432 26.3253 93.3916 26.3413 93.248 26.3413C93.1363 26.3413 93.0246 26.3413 92.9129 26.3413C92.8012 26.3253 92.6815 26.3173 92.5539 26.3173C92.3464 26.3173 92.1869 26.3812 92.0752 26.5088C91.9794 26.6365 91.9316 26.804 91.9316 27.0114V33.4978H99.8062V26.9157C99.8062 26.6764 99.7583 26.5168 99.6626 26.437C99.5828 26.3413 99.4232 26.2934 99.1839 26.2934C99.0243 26.2934 98.8647 26.3014 98.7052 26.3173C98.5615 26.3333 98.402 26.3413 98.2265 26.3413C98.1307 26.3413 98.027 26.3014 97.9153 26.2216C97.8196 26.1418 97.7717 26.0461 97.7717 25.9344C97.7717 25.6312 97.9233 25.4796 98.2265 25.4796C98.4179 25.4796 98.6094 25.4876 98.8009 25.5035C98.9924 25.5195 99.1839 25.5355 99.3753 25.5514C99.7423 25.5674 100.109 25.5833 100.476 25.5993C100.843 25.5993 101.21 25.5993 101.577 25.5993C102.104 25.5993 102.63 25.5833 103.157 25.5514C103.7 25.5035 104.234 25.4796 104.761 25.4796C104.888 25.4796 104.984 25.5195 105.048 25.5993C105.112 25.6791 105.144 25.7748 105.144 25.8865ZM120.675 34.3116C120.675 33.7053 120.628 33.0351 120.532 32.3011C120.436 31.5511 120.276 30.8091 120.053 30.0751C119.83 29.3411 119.527 28.6709 119.144 28.0646C118.761 27.4423 118.282 26.9476 117.707 26.5806C117.149 26.1977 116.479 26.0062 115.697 26.0062C114.915 26.0062 114.237 26.1977 113.662 26.5806C113.088 26.9476 112.601 27.4423 112.202 28.0646C111.819 28.6709 111.508 29.3411 111.269 30.0751C111.03 30.8091 110.854 31.5511 110.742 32.3011C110.647 33.0351 110.599 33.7053 110.599 34.3116C110.599 34.918 110.655 35.5881 110.766 36.3221C110.878 37.0402 111.054 37.7662 111.293 38.5002C111.532 39.2183 111.843 39.8805 112.226 40.4868C112.625 41.0772 113.112 41.5559 113.686 41.9229C114.261 42.274 114.931 42.4495 115.697 42.4495C116.495 42.4495 117.173 42.274 117.731 41.9229C118.306 41.5559 118.777 41.0772 119.144 40.4868C119.527 39.8964 119.83 39.2422 120.053 38.5242C120.276 37.8061 120.436 37.0801 120.532 36.3461C120.628 35.6121 120.675 34.9339 120.675 34.3116ZM124.146 34.2637C124.146 36.0668 123.827 37.6386 123.189 38.9789C122.55 40.3193 121.601 41.3565 120.34 42.0905C119.096 42.8245 117.548 43.1915 115.697 43.1915C113.878 43.1915 112.338 42.8245 111.077 42.0905C109.817 41.3405 108.859 40.3033 108.205 38.9789C107.551 37.6386 107.224 36.0828 107.224 34.3116C107.224 33.067 107.415 31.9022 107.798 30.8171C108.197 29.7161 108.764 28.7507 109.498 27.921C110.248 27.0912 111.141 26.445 112.178 25.9822C113.232 25.5195 114.404 25.2881 115.697 25.2881C117.516 25.2881 119.056 25.6711 120.316 26.437C121.577 27.187 122.526 28.2401 123.165 29.5964C123.819 30.9368 124.146 32.4926 124.146 34.2637ZM143.325 25.8865C143.325 25.9982 143.285 26.1099 143.206 26.2216C143.142 26.3173 143.046 26.3652 142.918 26.3652C142.711 26.3652 142.504 26.3652 142.296 26.3652C142.089 26.3492 141.881 26.3413 141.674 26.3413C141.466 26.3413 141.339 26.445 141.291 26.6524C141.243 26.8439 141.219 27.0194 141.219 27.179C141.219 27.2588 141.219 27.3465 141.219 27.4423C141.235 27.5221 141.243 27.6018 141.243 27.6816C141.243 29.1337 141.243 30.5778 141.243 32.0139C141.259 33.45 141.267 34.886 141.267 36.3221C141.267 38.4284 140.748 40.0959 139.711 41.3246C138.674 42.5373 137.062 43.1436 134.876 43.1436C132.722 43.1436 131.047 42.625 129.85 41.5878C128.653 40.5507 128.055 38.9151 128.055 36.6812V35.6041C128.055 34.2318 128.055 32.8596 128.055 31.4873C128.071 30.0991 128.079 28.7108 128.079 27.3226C128.079 27.179 128.063 26.9875 128.031 26.7482C127.999 26.4929 127.887 26.3572 127.696 26.3413C127.488 26.3253 127.273 26.3253 127.05 26.3413C126.842 26.3572 126.635 26.3652 126.427 26.3652C126.316 26.3652 126.212 26.3253 126.116 26.2455C126.02 26.1498 125.972 26.0461 125.972 25.9344C125.972 25.8067 126.012 25.695 126.092 25.5993C126.188 25.5035 126.3 25.4557 126.427 25.4557C126.619 25.4557 126.802 25.4637 126.978 25.4796C127.169 25.4956 127.353 25.5115 127.528 25.5275C127.895 25.5434 128.262 25.5594 128.629 25.5753C128.996 25.5753 129.355 25.5753 129.706 25.5753C130.073 25.5753 130.424 25.5753 130.759 25.5753C131.111 25.5753 131.462 25.5674 131.813 25.5514C132.036 25.5355 132.251 25.5195 132.459 25.5035C132.682 25.4716 132.898 25.4557 133.105 25.4557C133.233 25.4557 133.329 25.5035 133.392 25.5993C133.472 25.695 133.512 25.8067 133.512 25.9344C133.512 26.0461 133.472 26.1498 133.392 26.2455C133.329 26.3253 133.233 26.3652 133.105 26.3652C132.898 26.3652 132.69 26.3572 132.483 26.3413C132.291 26.3253 132.092 26.3173 131.884 26.3173C131.725 26.3173 131.621 26.3891 131.573 26.5327C131.525 26.6604 131.493 26.7881 131.478 26.9157C131.462 27.171 131.454 27.4263 131.454 27.6816C131.47 27.9369 131.478 28.1922 131.478 28.4475C131.478 29.8836 131.462 31.3197 131.43 32.7558C131.414 34.176 131.406 35.6041 131.406 37.0402C131.406 37.7263 131.43 38.3806 131.478 39.0029C131.541 39.6092 131.685 40.1517 131.908 40.6304C132.132 41.1091 132.483 41.4841 132.962 41.7554C133.456 42.0266 134.134 42.1623 134.996 42.1623C136.145 42.1623 137.062 41.899 137.748 41.3724C138.435 40.8299 138.929 40.1278 139.232 39.2661C139.536 38.3885 139.687 37.4391 139.687 36.4179C139.687 34.8382 139.655 33.2585 139.591 31.6788C139.528 30.0991 139.496 28.5193 139.496 26.9396C139.496 26.7003 139.44 26.5407 139.328 26.4609C139.217 26.3652 139.049 26.3173 138.826 26.3173C138.666 26.3173 138.506 26.3253 138.347 26.3413C138.203 26.3572 138.044 26.3652 137.868 26.3652C137.756 26.3652 137.653 26.3253 137.557 26.2455C137.461 26.1657 137.413 26.062 137.413 25.9344C137.413 25.8067 137.453 25.695 137.533 25.5993C137.629 25.5035 137.741 25.4557 137.868 25.4557C138.123 25.4557 138.371 25.4716 138.61 25.5035C138.85 25.5195 139.097 25.5355 139.352 25.5514C139.512 25.5674 139.671 25.5753 139.831 25.5753C139.99 25.5753 140.15 25.5753 140.31 25.5753C140.485 25.5753 140.661 25.5753 140.836 25.5753C141.028 25.5753 141.211 25.5674 141.387 25.5514C141.642 25.5514 141.889 25.5355 142.129 25.5035C142.384 25.4716 142.639 25.4557 142.895 25.4557C143.182 25.4557 143.325 25.5993 143.325 25.8865Z" fill="black"/>
<path d="M15.3333 11.6868C15.3333 13.1595 16.5272 14.3535 18 14.3535C19.4728 14.3535 20.6667 13.1595 20.6667 11.6868C20.6667 10.214 19.4728 9.02012 18 9.02012C16.5272 9.02012 15.3333 10.214 15.3333 11.6868ZM75.7302 6.6068L75.9804 6.17387L75.7302 6.6068ZM127.639 10.5158L123.829 9.04822L122.361 12.8578L126.171 14.3254L127.639 10.5158ZM18.2946 12.0908C22.8727 8.75291 31.9582 4.46188 42.5259 2.52663C53.0895 0.592124 65.067 1.02326 75.4801 7.03973L75.9804 6.17387C65.2921 -0.00162911 53.0494 -0.417156 42.3457 1.54299C31.6461 3.50241 22.4173 7.84736 17.7054 11.2828L18.2946 12.0908ZM75.4801 7.03973C96.7411 19.3239 117.449 15.5848 125.203 12.1438L124.797 11.2298C117.289 14.5621 96.9222 18.2737 75.9804 6.17387L75.4801 7.03973Z" fill="black"/>
<path d="M15.3333 65.6868C15.3333 67.1595 16.5272 68.3535 18 68.3535C19.4728 68.3535 20.6667 67.1595 20.6667 65.6868C20.6667 64.214 19.4728 63.0201 18 63.0201C16.5272 63.0201 15.3333 64.214 15.3333 65.6868ZM75.7302 60.6068L75.9804 60.1739L75.7302 60.6068ZM127.639 64.5158L123.829 63.0482L122.361 66.8578L126.171 68.3254L127.639 64.5158ZM18.2946 66.0908C22.8727 62.7529 31.9582 58.4619 42.5259 56.5266C53.0895 54.5921 65.067 55.0233 75.4801 61.0397L75.9804 60.1739C65.2921 53.9984 53.0494 53.5828 42.3457 55.543C31.6461 57.5024 22.4173 61.8474 17.7054 65.2828L18.2946 66.0908ZM75.4801 61.0397C96.7411 73.3239 117.449 69.5848 125.203 66.1438L124.797 65.2298C117.289 68.5621 96.9222 72.2737 75.9804 60.1739L75.4801 61.0397Z" fill="black"/>
<ellipse cx="115.5" cy="34.5" rx="7.5" ry="8.5" fill="black"/>
</svg>
