<svg width="59" height="45" viewBox="0 0 59 45" fill="none" xmlns="http://www.w3.org/2000/svg">
<path d="M26.9389 32.9397C26.9389 36.4185 25.7374 39.2449 23.3344 41.4192C20.9314 43.4847 17.7063 44.5175 13.6591 44.5175C8.60021 44.5175 5.05895 43.1586 3.03537 40.4408C1.01179 37.6143 0 34.1899 0 30.1676C0 27.1236 0.758844 23.6992 2.27653 19.8943C3.79421 15.9807 5.75455 12.2301 8.15755 8.64256C10.5606 5.05511 13.0268 2.17424 15.5563 0L18.971 0.97841C16.821 4.02234 14.8607 7.82725 13.09 12.3931C11.3194 16.959 10.4973 21.0901 10.6238 24.7863V25.2755C11.2562 24.5145 12.0782 24.0253 13.09 23.8079C14.2283 23.5904 15.2401 23.4817 16.1254 23.4817C19.0343 23.4817 21.5637 24.4602 23.7138 26.417C25.8638 28.3738 26.9389 30.548 26.9389 32.9397ZM59 32.9397C59 36.4185 57.7985 39.2449 55.3955 41.4192C52.9925 43.4847 49.7674 44.5175 45.7202 44.5175C40.6613 44.5175 37.12 43.1586 35.0965 40.4408C33.0729 37.6143 32.0611 34.1899 32.0611 30.1676C32.0611 27.1236 32.8199 23.6992 34.3376 19.8943C35.8553 15.9807 37.8157 12.2301 40.2186 8.64256C42.6217 5.05511 45.0879 2.17424 47.6173 0L51.0321 0.97841C48.8821 4.02234 46.9218 7.82725 45.1511 12.3931C43.3805 16.959 42.5584 21.0901 42.6848 24.7863V25.2755C43.3172 24.5145 44.1393 24.0253 45.1511 23.8079C46.2894 23.5904 47.3012 23.4817 48.1865 23.4817C51.0954 23.4817 53.6248 24.4602 55.7749 26.417C57.9249 28.3738 59 30.548 59 32.9397Z" fill="black"/>
</svg>
